<svg width="11" height="13" viewBox="0 0 11 13" fill="none" xmlns="http://www.w3.org/2000/svg">
<path d="M5.5 6.5C4.66646 6.5 3.86706 6.15759 3.27766 5.5481C2.68826 4.9386 2.35714 4.11195 2.35714 3.25C2.35714 2.38805 2.68826 1.5614 3.27766 0.951903C3.86706 0.34241 4.66646 0 5.5 0C6.33354 0 7.13294 0.34241 7.72234 0.951903C8.31174 1.5614 8.64286 2.38805 8.64286 3.25C8.64286 4.11195 8.31174 4.9386 7.72234 5.5481C7.13294 6.15759 6.33354 6.5 5.5 6.5ZM5.13415 9.12031L4.67746 8.3332C4.52031 8.06152 4.70937 7.71875 5.01384 7.71875H5.5H5.98371C6.28817 7.71875 6.47723 8.06406 6.32009 8.3332L5.86339 9.12031L6.68348 12.2662L7.56741 8.53633C7.61652 8.33066 7.80804 8.19609 8.00692 8.24941C9.72812 8.69629 11 10.3061 11 12.2205C11 12.6521 10.6612 13 10.2462 13H7.01004C6.95848 13 6.91183 12.9898 6.86763 12.9721L6.875 13H4.125L4.13237 12.9721C4.08817 12.9898 4.03906 13 3.98996 13H0.753795C0.338839 13 0 12.6496 0 12.2205C0 10.3035 1.27433 8.69375 2.99308 8.24941C3.19196 8.19863 3.38348 8.3332 3.43259 8.53633L4.31652 12.2662L5.13661 9.12031H5.13415Z" fill="#007BFF"/>
</svg>
