<svg width="21" height="15" viewBox="0 0 21 15" fill="none" xmlns="http://www.w3.org/2000/svg">
<path fill-rule="evenodd" clip-rule="evenodd" d="M8.10208 0.767422C7.7455 0.410859 7.16748 0.410859 6.81091 0.767422L0.723953 6.85443C0.367379 7.211 0.367379 7.78902 0.723953 8.1456L6.81091 14.2326C7.16748 14.5891 7.7455 14.5891 8.10208 14.2326C8.45865 13.876 8.45865 13.298 8.10208 12.9414L2.66082 7.50001L8.10208 2.05866C8.45865 1.7021 8.45865 1.12398 8.10208 0.767422Z" fill="#007BFF"/>
<g opacity="0.5">
<path d="M13.5435 6.58609C14.7041 6.58609 16.4246 6.92672 17.8813 7.9755C19.3845 9.05789 20.5435 10.8538 20.5435 13.5861C20.5435 14.0903 20.1347 14.4991 19.6304 14.4991C19.1262 14.4991 18.7174 14.0903 18.7174 13.5861C18.7174 11.4488 17.8473 10.2013 16.8143 9.45756C15.7347 8.68025 14.4118 8.41218 13.5435 8.41218L3.57387 8.41218L2.66083 7.49913L3.57387 6.58609L13.5435 6.58609Z" fill="#007BFF"/>
<path d="M0.488606 7.25932C0.437475 7.44741 0.447337 7.64852 0.518555 7.83138C0.478502 7.72875 0.456467 7.61687 0.456467 7.5C0.456467 7.41673 0.467667 7.33602 0.488606 7.25932Z" fill="#007BFF"/>
</g>
</svg>
