<svg width="12" height="9" viewBox="0 0 12 9" fill="none" xmlns="http://www.w3.org/2000/svg">
<path d="M1 7.35712V1.64285L4.76733 4.22616C5.51378 4.738 6.48622 4.738 7.23267 4.22616L11 1.64285V7.35712C11 7.92855 10.4444 8.49997 9.88889 8.5H2.11111C1.55556 8.49997 1 7.92855 1 7.35712Z" fill="#007BFF"/>
<path d="M1 1.64285C1 1.07143 1.55556 0.499973 2.11111 0.5L9.88889 0.500027C10.4444 0.5 11 1.07143 11 1.64285M1 1.64285V7.35712C1 7.92855 1.55556 8.49997 2.11111 8.5H9.88889C10.4444 8.49997 11 7.92855 11 7.35712V1.64285M1 1.64285L4.76733 4.22616C5.51378 4.738 6.48622 4.738 7.23267 4.22616L11 1.64285" stroke="#007BFF" stroke-linecap="round" stroke-linejoin="round"/>
</svg>
