<svg width="14" height="10" viewBox="0 0 14 10" fill="none" xmlns="http://www.w3.org/2000/svg">
<path d="M1 7.98212V2.26785L4.76733 4.85116C5.51378 5.363 6.48622 5.363 7.23267 4.85116L11 2.26785V7.98212C11 8.55355 10.4444 9.12497 9.88889 9.125H2.11111C1.55556 9.12497 1 8.55355 1 7.98212Z" fill="#007BFF"/>
<path d="M1 2.26785C1 1.69643 1.55556 1.12497 2.11111 1.125L9.88889 1.12503C10.4444 1.125 11 1.69643 11 2.26785M1 2.26785V7.98212C1 8.55355 1.55556 9.12497 2.11111 9.125H9.88889C10.4444 9.12497 11 8.55355 11 7.98212V2.26785M1 2.26785L4.76733 4.85116C5.51378 5.363 6.48622 5.363 7.23267 4.85116L11 2.26785" stroke="#007BFF" stroke-linecap="round" stroke-linejoin="round"/>
<rect x="8.15" y="4.025" width="5.7" height="5.7" rx="2.85" fill="#007BFF"/>
<rect x="8.15" y="4.025" width="5.7" height="5.7" rx="2.85" stroke="white" stroke-width="0.3"/>
<path d="M12 6.375L10.6667 7.375L10 6.875" stroke="white" stroke-width="0.6" stroke-linecap="round" stroke-linejoin="round"/>
</svg>
