<svg width="8" height="11" viewBox="0 0 8 11" fill="none" xmlns="http://www.w3.org/2000/svg">
<path d="M4.00195 0.5C5.3825 0.500372 6.50194 1.61944 6.50195 3V4H7.50195C7.77805 4.00004 8.00194 4.2239 8.00195 4.5V8C8.00149 9.38029 6.88234 10.5 5.50195 10.5H2.5C1.11957 10.5 0.000461157 9.38032 0 8V4.5C1.61701e-05 4.22387 0.223868 4 0.5 4H1.50098V3C1.50099 1.61921 2.62109 0.5 4.00195 0.5ZM5.25195 6.74902C4.97595 6.74902 4.75218 6.97307 4.75195 7.24902V7.25293C4.75221 7.52885 4.97597 7.75293 5.25195 7.75293H5.25586C5.53148 7.7525 5.7556 7.52859 5.75586 7.25293V7.24902C5.75563 6.97334 5.5315 6.74945 5.25586 6.74902H5.25195ZM4.00195 1.5C3.17301 1.5 2.50099 2.17186 2.50098 3V4H5.50195V3C5.50194 2.17209 4.83058 1.50037 4.00195 1.5Z" fill="#007BFF"/>
</svg>
