<svg width="14" height="11" viewBox="0 0 14 11" fill="none" xmlns="http://www.w3.org/2000/svg">
<path d="M7.00015 0.65332C9.93018 0.653382 12.4793 2.28146 13.7902 4.67871C14.07 5.19064 14.07 5.80936 13.7902 6.32129C12.4793 8.7185 9.93015 10.3466 7.00015 10.3467C4.07005 10.3467 1.521 8.71859 0.210107 6.32129C-0.0698395 5.8092 -0.069906 5.1898 0.210107 4.67773C1.52108 2.28072 4.07026 0.653332 7.00015 0.65332ZM7.00112 2.5957C5.39737 2.5957 4.09693 3.89629 4.09683 5.5C4.09696 7.10368 5.39739 8.40332 7.00112 8.40332C8.60443 8.40282 9.90431 7.10337 9.90444 5.5C9.90434 3.8966 8.60445 2.5962 7.00112 2.5957ZM7.00112 4.0957C7.39239 4.09596 7.74572 4.25705 8.00015 4.51562C7.62273 4.68306 7.35952 5.06047 7.35952 5.5C7.35955 5.93937 7.62291 6.3159 8.00015 6.4834C7.74569 6.74201 7.39258 6.90307 7.00112 6.90332C6.22594 6.90332 5.59696 6.27539 5.59683 5.5C5.59693 4.72459 6.22593 4.0957 7.00112 4.0957Z" fill="#9CA3AF"/>
</svg>
