<svg width="15" height="16" viewBox="0 0 15 16" fill="none" xmlns="http://www.w3.org/2000/svg">
<path d="M2.4963 1.01757C2.47443 1.02577 2.4252 1.05859 2.39239 1.0914C2.25019 1.2172 2.25019 1.21993 2.25019 2.3548V3.41311L1.76342 3.90808C1.10711 4.57259 0.877399 4.91989 0.664098 5.55979C0.494551 6.07391 0.50002 5.87701 0.50002 10.5149C0.50002 14.6087 0.502755 14.7427 0.551978 14.8193C0.579324 14.8603 0.639486 14.9204 0.680506 14.9478C0.757076 14.997 0.932092 14.9997 6.89906 14.9997C12.2945 14.9997 13.0602 14.9943 13.2024 14.9587C13.804 14.8056 14.3072 14.3024 14.4603 13.7008C14.515 13.4875 14.5123 13.0445 14.4576 12.8312C14.2935 12.194 13.7767 11.7045 13.1258 11.5705C12.9672 11.5377 12.7457 11.5268 12.1796 11.5268H11.4413L11.4303 8.84135C11.4221 6.43214 11.4167 6.13407 11.3757 5.96179C11.2417 5.40939 11.0475 4.97185 10.7631 4.57533C10.6756 4.45227 10.3994 4.14052 10.1478 3.88346L9.68839 3.41037V2.37668C9.68839 1.41409 9.68292 1.33205 9.63369 1.2254C9.60361 1.15703 9.54345 1.08593 9.49149 1.05312C9.40125 0.998426 9.3657 0.998426 5.96929 1.00116C4.08239 1.00116 2.51818 1.00937 2.4963 1.01757ZM4.43789 2.50247V3.18613H3.76791H3.09792V2.50247V1.81882H3.76791H4.43789V2.50247ZM6.6256 2.50247V3.18613H5.95561H5.28563V2.50247V1.81882H5.95561H6.6256V2.50247ZM8.84065 2.50247V3.18613H8.15699H7.47333V2.50247V1.81882H8.15699H8.84065V2.50247ZM9.54345 4.50423C10.1587 5.13046 10.3556 5.434 10.4951 5.98913L10.558 6.23525L6.9811 6.24892C3.4042 6.2626 3.40147 6.2626 3.3249 6.32002C3.28388 6.3501 3.22098 6.41847 3.18816 6.46769L3.12527 6.55794V9.30351C3.12527 12.3444 3.11433 12.1694 3.30028 12.3007L3.38506 12.3608L5.5673 12.369C6.76506 12.3718 7.7468 12.38 7.7468 12.3854C7.7468 12.3909 7.71125 12.4729 7.66749 12.5687C7.56358 12.8011 7.52803 12.9816 7.52803 13.2851C7.52803 13.5586 7.57452 13.7801 7.67843 14.0125C7.71672 14.0919 7.7468 14.163 7.7468 14.1684C7.7468 14.1739 6.30018 14.1794 4.5336 14.1794H1.31768L1.32861 10.2606C1.33955 5.92897 1.32588 6.21884 1.5173 5.70747C1.67591 5.28907 1.85366 5.03748 2.37051 4.50696L2.83266 4.03387H5.95288H9.07583L9.54345 4.50423ZM10.5908 7.56155V8.02643H7.87806C5.20085 8.02643 5.16257 8.02643 5.07233 8.08113C4.88364 8.19598 4.82621 8.49679 4.95747 8.68275C5.09147 8.87144 4.89458 8.8605 7.89173 8.8687L10.5908 8.87417V10.2005V11.5268H7.28191H3.973V9.31171V7.09666H7.28191H10.5908V7.56155ZM10.5908 13.2769V14.1794H9.95638C9.23991 14.1794 9.02387 14.1547 8.83245 14.0481C8.43046 13.8293 8.26091 13.3152 8.45507 12.9078C8.53437 12.7409 8.70939 12.5523 8.86526 12.4729C9.0184 12.3936 9.14966 12.38 9.87434 12.3772L10.5908 12.3745V13.2769ZM13.1395 12.4647C13.3419 12.5632 13.5524 12.7929 13.6126 12.9789C13.6782 13.1703 13.6591 13.493 13.5743 13.6543C13.4348 13.9278 13.1942 14.1001 12.8879 14.1493C12.7895 14.1657 12.423 14.1794 12.0757 14.1794H11.4386V13.2742V12.3718L12.2125 12.38L12.9836 12.3882L13.1395 12.4647Z" fill="#007BFF" stroke="#007BFF" stroke-width="0.3"/>
</svg>
