<svg width="11" height="13" viewBox="0 0 11 13" fill="none" xmlns="http://www.w3.org/2000/svg">
<path d="M2.35714 3.2084V1.73457C2.35714 1.39543 2.56094 1.08944 2.86786 0.969597L5.225 0.0516354C5.40179 -0.0172118 5.59821 -0.0172118 5.77746 0.0516354L8.1346 0.969597C8.44152 1.08944 8.64531 1.39288 8.64531 1.73457V3.2084H8.63795C8.64286 3.2747 8.64531 3.34355 8.64531 3.4124V4.43235C8.64531 6.23513 7.23839 7.69622 5.50246 7.69622C3.76652 7.69622 2.3596 6.23513 2.3596 4.43235V3.4124C2.3596 3.34355 2.36205 3.2747 2.36696 3.2084H2.35714ZM3.53571 4.43235C3.53571 5.55941 4.41473 6.47227 5.5 6.47227C6.58527 6.47227 7.46429 5.55941 7.46429 4.43235V4.02437H3.53571V4.43235ZM2.74754 8.30054C3.00536 8.21385 3.28281 8.31074 3.46942 8.51729L5.21272 10.4425C5.36741 10.6133 5.63013 10.6133 5.78482 10.4425L7.52812 8.51729C7.71473 8.31074 7.99219 8.21385 8.25 8.30054C9.84598 8.83347 11 10.3838 11 12.2172C11 12.6507 10.6612 13 10.2462 13H0.753795C0.338839 13 0 12.6481 0 12.2172C0 10.3838 1.15402 8.83347 2.74754 8.30054ZM5.10714 1.16849V1.57647H4.71429C4.60625 1.57647 4.51786 1.66827 4.51786 1.78046V2.18845C4.51786 2.30064 4.60625 2.39244 4.71429 2.39244H5.10714V2.80042C5.10714 2.91262 5.19554 3.00441 5.30357 3.00441H5.69643C5.80446 3.00441 5.89286 2.91262 5.89286 2.80042V2.39244H6.28571C6.39375 2.39244 6.48214 2.30064 6.48214 2.18845V1.78046C6.48214 1.66827 6.39375 1.57647 6.28571 1.57647H5.89286V1.16849C5.89286 1.05629 5.80446 0.964498 5.69643 0.964498H5.30357C5.19554 0.964498 5.10714 1.05629 5.10714 1.16849Z" fill="#007BFF" fill-opacity="0.5"/>
</svg>
